Coordinates
version=1
nRows=32
nColumns=12
inDegrees=yes

Units are S.I. units (second, meters, Newtons, ...)
Angles are in degrees

endheader
time	SC_y	SC_z	SC_x	AC_y	AC_z	AC_x	GH_y	GH_z	GH_yy	EL_x	PS_y
       0.0              -55.94         -1.757          45.85          33.32          0.376          8.306          47.79          11.85          132.4          33.57          39.87
   0.02101              -55.94         -1.752          45.84          33.32         0.3766          8.306          47.78          11.85          132.4          33.57          39.89
   0.04203              -55.94         -1.747          45.83          33.32         0.3773          8.306          47.77          11.85          132.3          33.57          39.91
   0.06304              -55.94         -1.742          45.83          33.32          0.378          8.307          47.75          11.85          132.3          33.58          39.92
   0.08405              -55.94         -1.736          45.82          33.32         0.3788          8.307          47.74          11.86          132.3          33.58          39.94
    0.1051              -55.94          -1.73          45.81          33.32         0.3796          8.308          47.73          11.86          132.2          33.58          39.96
    0.1261              -55.94         -1.724           45.8          33.32         0.3805          8.308          47.71          11.86          132.2          33.58          39.99
    0.1471              -55.94         -1.717          45.79          33.32         0.3815          8.309           47.7          11.87          132.2          33.59          40.01
    0.1681              -55.94          -1.71          45.78          33.32         0.3825          8.309          47.68          11.87          132.1          33.59          40.03
    0.1891              -55.94         -1.702          45.77          33.32         0.3836           8.31          47.66          11.88          132.1          33.59          40.06
    0.2101              -55.94         -1.693          45.76          33.33         0.3848          8.311          47.64          11.88          132.0           33.6          40.09
    0.2311              -55.94         -1.684          45.75          33.33         0.3861          8.311          47.62          11.88          132.0           33.6          40.12
    0.2522              -55.94         -1.674          45.74          33.33         0.3874          8.312           47.6          11.89          131.9          33.61          40.15
    0.2732              -55.94         -1.663          45.72          33.33         0.3889          8.313          47.58          11.89          131.8          33.61          40.19
    0.2942              -55.94         -1.652          45.71          33.33         0.3905          8.314          47.55           11.9          131.8          33.62          40.23
    0.3152              -55.94         -1.639          45.69          33.33         0.3922          8.315          47.52          11.91          131.7          33.62          40.27
    0.3362              -55.94         -1.626          45.67          33.34         0.3941          8.316          47.49          11.91          131.6          33.63          40.32
    0.3572              -55.94         -1.611          45.65          33.34         0.3961          8.317          47.46          11.92          131.5          33.64          40.37
    0.3782              -55.94         -1.595          45.63          33.34         0.3984          8.318          47.42          11.93          131.4          33.65          40.42
    0.3993              -55.93         -1.577          45.61          33.35         0.4008           8.32          47.38          11.94          131.3          33.65          40.48
    0.4203              -55.93         -1.557          45.58          33.35         0.4035          8.321          47.34          11.95          131.2          33.66          40.55
    0.4413              -55.93         -1.536          45.55          33.35         0.4065          8.323          47.29          11.96          131.0          33.67          40.62
    0.4623              -55.93         -1.512          45.52          33.36         0.4098          8.325          47.23          11.97          130.9          33.69           40.7
    0.4833              -55.93         -1.486          45.49          33.36         0.4134          8.327          47.18          11.99          130.7           33.7          40.79
    0.5043              -55.93         -1.457          45.45          33.37         0.4174          8.329          47.11           12.0          130.6          33.71          40.89
    0.5253              -55.93         -1.425           45.4          33.37         0.4219          8.332          47.04          12.02          130.4          33.73           41.0
    0.5464              -55.93         -1.388          45.36          33.38         0.4269          8.335          46.95          12.03          130.1          33.74          41.12
    0.5674              -55.92         -1.347           45.3          33.38         0.4326          8.338          46.86          12.06          129.9          33.76          41.26
    0.5884              -55.92         -1.301          45.24          33.39          0.439          8.341          46.76          12.08          129.6          33.79          41.42
    0.6094              -55.92         -1.248          45.17           33.4         0.4463          8.345          46.64          12.11          129.3          33.81          41.59
    0.6304              -55.92         -1.188          45.09          33.41         0.4546           8.35           46.5          12.14          128.9          33.84           41.8
    0.6514              -55.91         -1.119           45.0          33.42         0.4641          8.356          46.35          12.17          128.5          33.87          42.03
